<?xml version="1.0" encoding="UTF-8" standalone="no"?>
<svg
   width="192"
   height="192"
   viewBox="0 0 192 192"
   version="1.1"
   id="svg2"
   sodipodi:docname="icon-192.svg"
   inkscape:export-filename="icon-192.png"
   inkscape:export-xdpi="96"
   inkscape:export-ydpi="96"
   inkscape:version="1.4.3 (fcd0343856, 2026-01-01)"
   xmlns:inkscape="http://www.inkscape.org/namespaces/inkscape"
   xmlns:sodipodi="http://sodipodi.sourceforge.net/DTD/sodipodi-0.dtd"
   xmlns="http://www.w3.org/2000/svg"
   xmlns:svg="http://www.w3.org/2000/svg">
  <defs
     id="defs2">
    <rect
       x="34.239278"
       y="146.2754"
       width="135.65688"
       height="34.022573"
       id="rect3" />
  </defs>
  <sodipodi:namedview
     id="namedview2"
     pagecolor="#ffffff"
     bordercolor="#000000"
     borderopacity="0.25"
     inkscape:showpageshadow="2"
     inkscape:pageopacity="0.0"
     inkscape:pagecheckerboard="0"
     inkscape:deskcolor="#d1d1d1"
     inkscape:zoom="4.6145833"
     inkscape:cx="95.891649"
     inkscape:cy="78.555305"
     inkscape:window-width="2494"
     inkscape:window-height="1371"
     inkscape:window-x="66"
     inkscape:window-y="32"
     inkscape:window-maximized="1"
     inkscape:current-layer="svg2" />
  <rect
     width="192"
     height="192"
     fill="#52a441"
     rx="20"
     id="rect1"
     x="0"
     y="0"
     style="stroke-width:1" />
  <path
     fill="#ffffff"
     d="M 96,20 C 65.1,20 40.000001,45.100001 40.000001,76.000001 40.000001,106.9 65.1,132 96,132 126.9,132 152,106.9 152,76.000001 152,45.100001 126.9,20 96,20 Z m 0,96 C 73.900001,116 55.999999,98.1 55.999999,76.000001 55.999999,53.899999 73.900001,36 96,36 118.1,36 136,53.899999 136,76.000001 136,98.1 118.1,116 96,116 Z"
     id="path1"
     style="stroke-width:1" />
  <path
     fill="#ffffff"
     d="m 96,52.000001 c -13.300001,0 -24,10.699999 -24,24 C 72,89.299999 82.699999,100 96,100 c 13.3,0 24,-10.700001 24,-23.999999 0,-13.300001 -10.7,-24 -24,-24 z M 96,84 c -4.399999,0 -7.999999,-3.6 -7.999999,-7.999999 0,-4.400002 3.6,-8.000002 7.999999,-8.000002 4.4,0 8,3.6 8,8.000002 C 104,80.4 100.4,84 96,84 Z"
     id="path2"
     style="stroke-width:1" />
  <rect
     x="88"
     y="120"
     width="16"
     height="20"
     fill="#ffffff"
     rx="2"
     id="rect2"
     style="stroke-width:1" />
  <text
     xml:space="preserve"
     id="text2"
     style="writing-mode:lr-tb;direction:ltr;white-space:pre;shape-inside:url(#rect3);fill:#000000"
     transform="matrix(1.7494975,0,0,1.7494975,-36.758805,-107.7365)"><tspan
       x="34.240234"
       y="156.89258"
       id="tspan4"><tspan
         style="font-weight:bold;fill:#ffffff"
         id="tspan3">TrailCurrent</tspan></tspan></text>
</svg>
